# xmcd
#
# Track frame offsets:
# 150
# 20086
# 41000
# 62383
# 87737
# 110158
# 127332
# 143305
# 155115
# 162665
# 182820
#
# Disc length: 2734 seconds
#
# Revision: 1
# Processed by: cddbd v1.5.2PL0 Copyright (c) Steve Scherf et al.
# Submitted via: Easy CD Ripper 2.3.10
#
DISCID=a30aac0b
DTITLE=Willie Murphy - Autobiographical Notes
DYEAR=2009
DGENRE=Blues
TTITLE0=Voice in the Night - Willie Murphy
TTITLE1=Story of My Love LIfe - Willie Murphy
TTITLE2=Dolphins - Willie Murphy
TTITLE3=Up Along the Coast - Willie Murphy
TTITLE4=Fairy Tale - Willie Murphy
TTITLE5=Something To It - Willie Murphy
TTITLE6=Hello Don't Mean I Love You - Willie Murphy
TTITLE7=Road Song - Willie Murphy
TTITLE8=Dust to Dust - Willie Murphy
TTITLE9=Ramblin' Revo - Willie Murphy
TTITLE10=Voice In The Night - Willie Murphy
EXTD=
EXTT0=Red House Records
EXTT1=Red House Records
EXTT2=Red House Records
EXTT3=Red House Records
EXTT4=Red House Records
EXTT5=Red House Records
EXTT6=Red House Records
EXTT7=Red House Records
EXTT8=Red House Records
EXTT9=Red House Records
EXTT10=Red House Records
PLAYORDER=
